<svg width="19" height="16" viewBox="0 0 19 16" fill="none" xmlns="http://www.w3.org/2000/svg">
<path fill-rule="evenodd" clip-rule="evenodd" d="M6.28571 0.5C5.64929 0.5 5.15043 0.910454 4.84186 1.40273C4.52943 1.89909 4.35714 2.54682 4.35714 3.22727C4.35714 3.90773 4.52943 4.55545 4.84186 5.05182C5.15043 5.54273 5.64929 5.95455 6.28571 5.95455C6.92214 5.95455 7.421 5.54409 7.72957 5.05182C8.042 4.55545 8.21429 3.90773 8.21429 3.22727C8.21429 2.54682 8.042 1.89909 7.72957 1.40273C7.421 0.911818 6.92214 0.5 6.28571 0.5ZM12.7143 0.5C12.0779 0.5 11.579 0.910454 11.2704 1.40273C10.958 1.89909 10.7857 2.54682 10.7857 3.22727C10.7857 3.90773 10.958 4.55545 11.2704 5.05182C11.579 5.54273 12.0779 5.95455 12.7143 5.95455C13.3507 5.95455 13.8496 5.54409 14.1581 5.05182C14.4706 4.55545 14.6429 3.90773 14.6429 3.22727C14.6429 2.54682 14.4706 1.89909 14.1581 1.40273C13.8496 0.911818 13.3507 0.5 12.7143 0.5ZM2.42857 6.63636C1.79214 6.63636 1.29329 7.04682 0.984714 7.53909C0.672286 8.03545 0.5 8.68318 0.5 9.36364C0.5 10.0441 0.672286 10.6918 0.984714 11.1882C1.29329 11.6791 1.79214 12.0909 2.42857 12.0909C3.065 12.0909 3.56386 11.6805 3.87243 11.1882C4.18486 10.6918 4.35714 10.0441 4.35714 9.36364C4.35714 8.68318 4.18486 8.03545 3.87243 7.53909C3.56386 7.04818 3.065 6.63636 2.42857 6.63636ZM9.5 6.63636C7.95714 6.63636 6.81414 7.51454 6.08386 8.60409C5.36257 9.67727 5 11.0095 5 12.0909C5 13.3509 5.71357 14.2264 6.58914 14.7527C7.45057 15.2709 8.53057 15.5 9.5 15.5C10.4694 15.5 11.5494 15.2723 12.4109 14.7527C13.2851 14.2264 14 13.3509 14 12.0909C14 11.0095 13.6374 9.67727 12.9161 8.60409C12.1871 7.51318 11.0441 6.63636 9.5 6.63636ZM16.5714 6.63636C15.935 6.63636 15.4361 7.04682 15.1276 7.53909C14.8151 8.03545 14.6429 8.68318 14.6429 9.36364C14.6429 10.0441 14.8151 10.6918 15.1276 11.1882C15.4361 11.6791 15.935 12.0909 16.5714 12.0909C17.2079 12.0909 17.7067 11.6805 18.0153 11.1882C18.3277 10.6918 18.5 10.0441 18.5 9.36364C18.5 8.68318 18.3277 8.03545 18.0153 7.53909C17.7067 7.04818 17.2079 6.63636 16.5714 6.63636Z" fill="#3D4755" fill-opacity="0.8"/>
</svg>
