<svg width="16" height="17" viewBox="0 0 16 17" fill="none" xmlns="http://www.w3.org/2000/svg">
<path d="M13.2234 2.87524H1.77637C1.62373 2.87524 1.5 3.01044 1.5 3.1772V14.5733C1.5 14.7401 1.62373 14.8752 1.77637 14.8752H13.2234C13.376 14.8752 13.4997 14.7401 13.4997 14.5733V3.1772C13.4997 3.01044 13.376 2.87524 13.2234 2.87524Z" fill="white" stroke="#3D4755" stroke-opacity="0.8" stroke-width="1.2" stroke-miterlimit="10"/>
<path d="M1.5 11.3623L4.5605 8.16791C4.96822 7.74115 5.62331 7.74478 6.02933 8.17518L8.64798 10.9628L10.0827 9.58441C10.4648 9.21757 11.0431 9.20123 11.4423 9.54991L13.4997 11.3423" fill="white"/>
<path d="M1.5 11.3623L4.5605 8.16791C4.96822 7.74115 5.62331 7.74478 6.02933 8.17518L8.64798 10.9628L10.0827 9.58441C10.4648 9.21757 11.0432 9.20123 11.4423 9.54991L13.4997 11.3423" stroke="#3D4755" stroke-opacity="0.8" stroke-width="1.13548" stroke-miterlimit="10"/>
<path d="M9.27313 7.26533C9.8003 7.26533 10.2277 6.8067 10.2277 6.24094C10.2277 5.67519 9.8003 5.21655 9.27313 5.21655C8.74596 5.21655 8.3186 5.67519 8.3186 6.24094C8.3186 6.8067 8.74596 7.26533 9.27313 7.26533Z" fill="white" stroke="#3D4755" stroke-opacity="0.8" stroke-width="1.13548" stroke-miterlimit="10"/>
</svg>
