<svg width="16" height="16" viewBox="0 0 16 16" fill="none" xmlns="http://www.w3.org/2000/svg">
<path d="M6 16C5.21333 16 4.54987 15.7301 4.0096 15.1904C3.46933 14.6507 3.19947 13.9872 3.2 13.2C3.2 13.08 3.2168 12.9867 3.2504 12.92C3.284 12.8533 3.28053 12.8 3.24 12.76C3.19947 12.72 3.14613 12.7168 3.08 12.7504C3.01387 12.784 2.92053 12.8005 2.8 12.8C2.01333 12.8 1.34987 12.5301 0.809601 11.9904C0.269334 11.4507 -0.000532544 10.7872 7.88954e-07 10C0.000534122 9.2128 0.270667 8.54933 0.810401 8.0096C1.35013 7.46987 2.01333 7.2 2.8 7.2C3.10667 7.2 3.38667 7.24 3.64 7.32C3.89333 7.4 4.13333 7.52 4.36 7.68L7.68 4.36C7.52 4.13333 7.4 3.89333 7.32 3.64C7.24 3.38667 7.2 3.10667 7.2 2.8C7.2 2.01333 7.47013 1.34987 8.0104 0.809601C8.55067 0.269334 9.21387 -0.000532544 10 7.88954e-07C10.7861 0.000534122 11.4496 0.270667 11.9904 0.810401C12.5312 1.35013 12.8011 2.01333 12.8 2.8C12.8 2.92 12.7835 3.01333 12.7504 3.08C12.7173 3.14667 12.7205 3.2 12.76 3.24C12.7995 3.28 12.8528 3.28347 12.92 3.2504C12.9872 3.21733 13.0805 3.20053 13.2 3.2C13.9867 3.2 14.6501 3.47013 15.1904 4.0104C15.7307 4.55067 16.0005 5.21387 16 6C15.9995 6.78613 15.7296 7.4496 15.1904 7.9904C14.6512 8.5312 13.9877 8.80107 13.2 8.8C12.8933 8.8 12.6133 8.76 12.36 8.68C12.1067 8.6 11.8667 8.48 11.64 8.32L8.32 11.64C8.48 11.8667 8.6 12.1067 8.68 12.36C8.76 12.6133 8.8 12.8933 8.8 13.2C8.8 13.9867 8.53013 14.6501 7.9904 15.1904C7.45067 15.7307 6.7872 16.0005 6 16Z" fill="#3D4755" fill-opacity="0.8"/>
</svg>
