<svg width="15" height="16" viewBox="0 0 15 16" fill="none" xmlns="http://www.w3.org/2000/svg">
<path d="M7.5 0.5C6.43913 0.5 5.42172 0.895088 4.67157 1.59835C3.92143 2.30161 3.5 3.25544 3.5 4.25C3.5 5.24456 3.92143 6.19839 4.67157 6.90165C5.42172 7.60491 6.43913 8 7.5 8C8.56087 8 9.57828 7.60491 10.3284 6.90165C11.0786 6.19839 11.5 5.24456 11.5 4.25C11.5 3.25544 11.0786 2.30161 10.3284 1.59835C9.57828 0.895088 8.56087 0.5 7.5 0.5ZM2.509 8.9375C2.2456 8.93639 1.98456 8.98407 1.74087 9.0778C1.49718 9.17153 1.27564 9.30946 1.08896 9.48368C0.902293 9.6579 0.754169 9.86498 0.653097 10.093C0.552026 10.3211 0.499997 10.5656 0.5 10.8125C0.5 12.3978 1.333 13.5931 2.635 14.3722C3.917 15.1381 5.645 15.5 7.5 15.5C9.355 15.5 11.083 15.1381 12.365 14.3722C13.667 13.5941 14.5 12.3969 14.5 10.8125C14.5 10.3152 14.2893 9.83831 13.9142 9.48668C13.5391 9.13504 13.0304 8.9375 12.5 8.9375H2.509Z" fill="white"/>
<path d="M7.5 0.5C6.43913 0.5 5.42172 0.895088 4.67157 1.59835C3.92143 2.30161 3.5 3.25544 3.5 4.25C3.5 5.24456 3.92143 6.19839 4.67157 6.90165C5.42172 7.60491 6.43913 8 7.5 8C8.56087 8 9.57828 7.60491 10.3284 6.90165C11.0786 6.19839 11.5 5.24456 11.5 4.25C11.5 3.25544 11.0786 2.30161 10.3284 1.59835C9.57828 0.895088 8.56087 0.5 7.5 0.5ZM2.509 8.9375C2.2456 8.93639 1.98456 8.98407 1.74087 9.0778C1.49718 9.17153 1.27564 9.30946 1.08896 9.48368C0.902293 9.6579 0.754169 9.86498 0.653097 10.093C0.552026 10.3211 0.499997 10.5656 0.5 10.8125C0.5 12.3978 1.333 13.5931 2.635 14.3722C3.917 15.1381 5.645 15.5 7.5 15.5C9.355 15.5 11.083 15.1381 12.365 14.3722C13.667 13.5941 14.5 12.3969 14.5 10.8125C14.5 10.3152 14.2893 9.83831 13.9142 9.48668C13.5391 9.13504 13.0304 8.9375 12.5 8.9375H2.509Z" fill="#3D4755"/>
</svg>
