<svg width="22" height="22" viewBox="0 0 22 22" fill="none" xmlns="http://www.w3.org/2000/svg">
<path d="M2.65469 3C2.29396 3 2 3.27952 2 3.62254V13.5832C2 13.9262 2.29396 14.2058 2.65469 14.2058H13.1297C13.4904 14.2058 13.7844 13.9262 13.7844 13.5832V3.62254C13.7844 3.27952 13.4904 3 13.1297 3H2.65469ZM3.30938 4.24508H12.475V11.7156H3.30938V4.24508ZM14.4391 4.80911V6.07349L15.626 6.26835L14.4391 12.805V13.5832C14.4391 14.2705 13.8518 14.8283 13.1297 14.8283H6.19393L14.5006 16.1904C14.6716 16.2186 14.8473 16.1812 14.9892 16.0863C15.1311 15.9914 15.2276 15.8468 15.2574 15.6843L17.0172 5.85996C17.0471 5.69733 17.0078 5.53008 16.908 5.39501C16.8082 5.25993 16.656 5.16809 16.485 5.13968L14.4391 4.80911ZM7.8922 5.45095C7.13865 5.45095 6.50098 5.944 6.50098 6.87159C6.50098 7.47794 6.78512 8.08679 7.17597 8.46654C7.32916 8.84629 7.0686 8.99072 7.0123 9.01127C6.22274 9.28269 5.29374 9.78633 5.29374 10.2756V11.0737H10.4907V10.2763C10.4907 9.77201 9.55969 9.27149 8.73085 9.01127C8.69288 8.99944 8.45785 8.89921 8.60843 8.46654C8.99797 8.08679 9.30371 7.47483 9.30371 6.87159C9.30371 5.944 8.64574 5.45095 7.8922 5.45095ZM17.3236 7.92244L17.0991 9.1476L17.5691 9.24472L15.7688 16.521L15.503 16.4625C15.3571 16.5995 15.1786 16.701 14.9827 16.7586C14.7868 16.8161 14.5793 16.8279 14.3775 16.793L5.31469 15.3145L5.12941 16.0547C5.09084 16.217 5.12062 16.3873 5.21239 16.529C5.30416 16.6707 5.45062 16.7726 5.62043 16.813L15.8093 19.0896C15.9801 19.1263 16.1591 19.098 16.3081 19.0107C16.4572 18.9234 16.5644 18.7842 16.6068 18.6227L18.9813 8.93283C19.0645 8.59914 18.8635 8.25363 18.5112 8.17395L17.3243 7.9212L17.3236 7.92244Z" fill="black" fill-opacity="0.7"/>
</svg>
