<svg width="16" height="17" viewBox="0 0 16 17" fill="none" xmlns="http://www.w3.org/2000/svg">
<path d="M2.44803 14.0845H12.9868C14.2594 14.0845 14.8987 13.4514 14.8987 12.1972V4.76295C14.8987 3.50879 14.2594 2.87573 12.9868 2.87573H2.44803C1.18166 2.87599 0.536133 3.50307 0.536133 4.76295V12.1975C0.536133 13.4576 1.18166 14.0845 2.44803 14.0845ZM10.6489 8.46516C10.3748 8.22176 10.0644 8.09369 9.73582 8.09369C9.39474 8.09369 9.09627 8.20955 8.81624 8.45919L6.06452 10.9189L4.93816 9.89596C4.68229 9.67074 4.40824 9.54891 4.11626 9.54891C3.84818 9.54891 3.58633 9.66477 3.33695 9.88999L1.5165 11.5273V4.8123C1.5165 4.17899 1.85731 3.85636 2.46621 3.85636H12.9686C13.5713 3.85636 13.9183 4.17899 13.9183 4.8123V11.5338L10.6489 8.46516ZM5.07194 8.53218C5.85748 8.53218 6.50274 7.88692 6.50274 7.0954C6.50274 6.31012 5.85748 5.65863 5.07194 5.65863C4.28069 5.65863 3.63543 6.31012 3.63543 7.0954C3.63604 7.47623 3.78758 7.84128 4.05684 8.11058C4.3261 8.37989 4.69112 8.53149 5.07194 8.53218Z" fill="#3D4755" fill-opacity="0.8"/>
</svg>
