<svg width="33" height="33" viewBox="0 0 33 33" fill="none" xmlns="http://www.w3.org/2000/svg">
<path d="M23.0966 10.4568C25.782 10.4568 27.9648 12.5361 27.9648 15.0916V23.0525C27.9645 28.4663 23.3047 32.8756 17.5791 32.8758H15.4824C9.7566 32.8758 5.09594 28.4664 5.09567 23.0525V15.0916C5.09567 12.5361 7.27942 10.4568 9.96481 10.4568L10.1806 10.4822L12.9785 11.2107C15.2567 11.8085 17.6739 11.8164 19.9521 11.2273L23.0879 10.448L23.0966 10.4568ZM20.3769 12.908C17.8128 13.5664 15.1012 13.5574 12.5371 12.8904L9.85153 12.1893C8.17108 12.2413 6.82028 13.5237 6.82028 15.0916V23.0525C6.82056 27.5135 10.7008 31.1433 15.4736 31.1434H17.5703C22.3431 31.1433 26.2233 27.5135 26.2236 23.0525H26.2158V15.0916C26.2158 13.5237 24.864 12.2413 23.1836 12.1893L20.3769 12.908ZM16.7978 0.876759C19.8037 0.911409 22.1255 1.75188 23.7021 3.36309C24.9753 4.67095 25.4429 6.18681 25.6162 7.15703C27.6345 7.04442 30.7018 7.76358 32.0185 11.1678H32.0273C34.1925 16.7541 29.9842 21.3017 29.8008 21.4939C29.6275 21.6672 29.4018 21.7625 29.1679 21.7625C28.9515 21.7624 28.7348 21.684 28.5703 21.5281C28.2241 21.1989 28.207 20.6538 28.5361 20.3074C28.6837 20.1512 32.1742 16.3482 30.4072 11.8006C29.0125 8.19696 25.1919 8.94172 25.0273 8.97637L23.9795 9.19317V8.11895C23.9795 7.90228 23.9095 2.69593 16.7802 2.61797C8.76388 2.54892 8.31759 7.98258 8.29977 8.22246L8.23923 9.19317L7.2861 9.02813C6.91126 8.9672 3.5697 8.5365 2.42673 12.5369C1.35267 16.2875 3.16268 18.7999 4.34079 19.9607L3.7695 20.6102L3.12009 21.1912C1.67344 19.7532 -0.561859 16.6602 0.754852 12.0604C1.85499 8.22294 4.76561 7.24398 6.70602 7.24395H6.7236C7.20009 5.29482 9.12311 0.772895 16.7978 0.876759ZM20.7226 18.0281C21.4928 18.0282 22.1172 18.6534 22.1172 19.4236C22.117 20.1937 21.4927 20.8181 20.7226 20.8182C19.9525 20.8182 19.3283 20.1937 19.3281 19.4236C19.3281 18.6534 19.9524 18.0281 20.7226 18.0281ZM12.2578 18.0203C13.0287 18.0203 13.6522 18.644 13.6523 19.4148C13.6523 20.1858 13.0288 20.8094 12.2578 20.8094C11.4869 20.8093 10.8633 20.1858 10.8633 19.4148C10.8634 18.6441 11.487 18.0204 12.2578 18.0203Z" fill="url(#paint0_linear_13_1842)"/>
<defs>
<linearGradient id="paint0_linear_13_1842" x1="0.354981" y1="30.5663" x2="32.8047" y2="30.9605" gradientUnits="userSpaceOnUse">
<stop offset="0.0262814" stop-color="#BF05CF" stop-opacity="0.9"/>
<stop offset="1" stop-color="#1A1AFD"/>
</linearGradient>
</defs>
</svg>
