<svg width="33" height="33" viewBox="0 0 33 33" fill="none" xmlns="http://www.w3.org/2000/svg">
<path d="M23.0961 10.4568C25.7814 10.4568 27.965 12.5354 27.9653 15.0906V23.0516C27.9653 28.4656 23.3046 32.8757 17.5785 32.8758H15.4819C9.75575 32.8758 5.09514 28.4657 5.09514 23.0516V15.0906C5.09538 12.5355 7.27815 10.457 9.9633 10.4568L10.1801 10.4822L12.9779 11.2098C15.2562 11.8075 17.6733 11.8163 19.9516 11.2273L23.0883 10.4481L23.0961 10.4568ZM20.3764 12.908C17.8122 13.5664 15.1007 13.5575 12.5365 12.8904L9.851 12.1893C8.1706 12.2413 6.81901 13.5229 6.81877 15.0906V23.0516C6.81877 27.5128 10.6999 31.1423 15.4731 31.1424H17.5697C22.3429 31.1423 26.224 27.5128 26.224 23.0516H26.2153V15.0906C26.215 13.5229 24.8635 12.2412 23.183 12.1893L20.3764 12.908ZM16.7983 0.876762C19.8043 0.911417 22.1259 1.75185 23.7026 3.36309C24.9758 4.67101 25.4433 6.18682 25.6166 7.15704C27.635 7.04442 30.7022 7.76353 32.019 11.1678H32.0278C34.1935 16.7552 29.9831 21.3034 29.8012 21.4939C29.6279 21.6672 29.4023 21.7625 29.1684 21.7625C28.9519 21.7624 28.7352 21.684 28.5707 21.5281C28.2246 21.1989 28.2076 20.6538 28.5365 20.3074C28.6838 20.1515 32.1747 16.3484 30.4076 11.8006C29.0129 8.19694 25.1923 8.94172 25.0278 8.97637L23.9799 9.19317V8.11895C23.9799 7.90238 23.9102 2.69594 16.7807 2.61797C8.76255 2.54881 8.3179 7.98423 8.30022 8.22247L8.23967 9.19317L7.28654 9.02813C6.91404 8.96749 3.56969 8.53479 2.42619 12.5369C1.35217 16.2877 3.16311 18.8 4.34123 19.9607L3.76897 20.6102L3.11955 21.1902C1.67287 19.7522 -0.562265 16.6598 0.754317 12.0604C1.8545 8.22282 4.76599 7.24395 6.70647 7.24395H6.72307C7.19952 5.29486 9.12299 0.772811 16.7983 0.876762ZM20.7221 18.0291C21.4924 18.0291 22.1166 18.6534 22.1166 19.4236C22.1165 20.1938 21.4923 20.8182 20.7221 20.8182C19.952 20.818 19.3277 20.1937 19.3276 19.4236C19.3276 18.6535 19.9519 18.0292 20.7221 18.0291ZM12.2572 18.0203C13.028 18.0204 13.6516 18.6441 13.6518 19.4148C13.6518 20.1858 13.0282 20.8103 12.2572 20.8104C11.4863 20.8104 10.8627 20.1858 10.8627 19.4148C10.8629 18.6441 11.4864 18.0203 12.2572 18.0203Z" fill="#BF05CF" fill-opacity="0.85"/>
</svg>
