<svg width="22" height="22" viewBox="0 0 22 22" fill="none" xmlns="http://www.w3.org/2000/svg">
<path d="M9.2933 19L8.96202 16.4293C8.66979 16.3434 8.35408 16.2089 8.01487 16.0258C7.67506 15.8421 7.38588 15.6453 7.14733 15.4356L4.7067 16.4444L3 13.5556L5.10936 12.0107C5.08251 11.8495 5.06025 11.6836 5.04255 11.5129C5.02547 11.3428 5.01693 11.1775 5.01693 11.0169C5.01693 10.8676 5.02547 10.7105 5.04255 10.5458C5.05964 10.381 5.0819 10.1956 5.10936 9.98933L3 8.44444L4.7067 5.58933L7.12995 6.58222C7.40326 6.36119 7.69915 6.16178 8.01762 5.984C8.33486 5.80622 8.64386 5.66874 8.94463 5.57156L9.29238 3H12.7067L13.038 5.58844C13.3888 5.70756 13.6987 5.84474 13.9677 6C14.2374 6.15526 14.5147 6.34904 14.7996 6.58133L17.2933 5.58933L19 8.44444L16.8202 10.0409C16.8702 10.2246 16.8983 10.3929 16.9044 10.5458C16.9105 10.6999 16.9135 10.8513 16.9135 11C16.9135 11.1381 16.9074 11.2836 16.8952 11.4364C16.8836 11.5899 16.8568 11.7754 16.8147 11.9929L18.9597 13.5556L17.253 16.4444L14.7996 15.4187C14.5147 15.651 14.2279 15.8504 13.9394 16.0169C13.6502 16.1834 13.3497 16.315 13.038 16.4116L12.7067 19H9.2933ZM10.0849 18.1111H11.8749L12.2125 15.704C12.6738 15.5855 13.0886 15.4228 13.4571 15.216C13.8262 15.0092 14.202 14.7259 14.5845 14.3662L16.8678 15.3111L17.7774 13.8L15.7742 12.3387C15.8505 12.0856 15.9011 11.8527 15.9261 11.64C15.9505 11.4279 15.9627 11.2145 15.9627 11C15.9627 10.7748 15.9505 10.5615 15.9261 10.36C15.9017 10.1585 15.8511 9.93719 15.7742 9.696L17.8122 8.2L16.9025 6.68889L14.5671 7.64C14.2902 7.3443 13.9263 7.06756 13.4754 6.80978C13.0246 6.552 12.5975 6.38074 12.1942 6.296L11.9151 3.88889H10.0904L9.80485 6.27822C9.34363 6.37422 8.91962 6.5283 8.53283 6.74044C8.14665 6.95378 7.7623 7.24593 7.37978 7.61689L5.09746 6.68889L4.18783 8.2L6.17273 9.64C6.09647 9.83911 6.04309 10.0554 6.01258 10.2889C5.98208 10.5224 5.96683 10.7653 5.96683 11.0178C5.96683 11.243 5.98208 11.4667 6.01258 11.6889C6.04309 11.9111 6.09067 12.1274 6.15534 12.3378L4.18783 13.8L5.09746 15.3111L7.36239 14.3778C7.72112 14.7298 8.09388 15.0121 8.48067 15.2249C8.86746 15.4376 9.30306 15.6033 9.78746 15.7218L10.0849 18.1111ZM10.9753 13.2222C11.6134 13.2222 12.1543 13.0068 12.5978 12.576C13.0413 12.1452 13.2631 11.6199 13.2631 11C13.2631 10.3801 13.0413 9.85482 12.5978 9.424C12.1543 8.99319 11.6134 8.77778 10.9753 8.77778C10.3335 8.77778 9.79173 8.99319 9.35003 9.424C8.90833 9.85482 8.68749 10.3801 8.68749 11C8.68749 11.6199 8.90833 12.1452 9.35003 12.576C9.79173 13.0068 10.3335 13.2222 10.9753 13.2222Z" fill="black" fill-opacity="0.7"/>
<path d="M12.7949 2.90039L12.8057 2.9873L13.1289 5.51465C13.4607 5.63071 13.7573 5.7629 14.0176 5.91309C14.2778 6.0629 14.5433 6.2483 14.8154 6.4668L17.2559 5.49609L17.335 5.46484L17.3789 5.53809L19.0859 8.39355L19.1328 8.47168L19.0596 8.52539L16.9316 10.082C16.9725 10.2461 16.9982 10.3992 17.0039 10.542C17.0101 10.6973 17.0137 10.8499 17.0137 11C17.0137 11.0705 17.0119 11.1427 17.0088 11.2168L16.9951 11.4443C16.9843 11.5874 16.9595 11.7554 16.9238 11.9482L19.0186 13.4746L19.0918 13.5283L19.0459 13.6064L17.3389 16.4951L17.2949 16.5703L17.2148 16.5371L14.8145 15.5332C14.6136 15.6943 14.4123 15.8404 14.209 15.9697L13.9893 16.1035C13.7127 16.2628 13.4251 16.3886 13.1279 16.4854L12.8057 19.0127L12.7949 19.0996H9.20508L9.19434 19.0127L8.87109 16.5049C8.58894 16.4164 8.28744 16.2868 7.96777 16.1143V16.1133C7.64477 15.9387 7.36549 15.7509 7.12988 15.5508L4.74512 16.5371L4.66504 16.5703L4.62109 16.4951L2.91406 13.6064L2.86816 13.5283L2.94043 13.4746L5.00098 11.9648C4.97826 11.8212 4.95899 11.6741 4.94336 11.5234V11.5225C4.92599 11.3494 4.91699 11.1806 4.91699 11.0166C4.917 10.8636 4.92597 10.7029 4.94336 10.5352C4.9589 10.3853 4.97796 10.2185 5.00195 10.0352L2.94043 8.52539L2.86719 8.47168L2.91406 8.39355L4.62109 5.53809L4.66504 5.46387L4.74414 5.49707L7.11426 6.4668C7.37894 6.25705 7.66369 6.06678 7.96875 5.89648L8.20898 5.76855C8.42705 5.65879 8.64213 5.56882 8.85352 5.49707L9.19336 2.98633L9.20508 2.90039H12.7949ZM9.9043 6.29004L9.89551 6.36133L9.8252 6.37598C9.48604 6.44657 9.16817 6.5494 8.87109 6.68359L8.58105 6.82812C8.20409 7.03639 7.82659 7.32251 7.44922 7.68848L7.40234 7.73438L7.3418 7.70996L5.13867 6.81348L4.32031 8.17285L6.23145 9.55859L6.29395 9.60449L6.2666 9.67578C6.19344 9.86681 6.14092 10.0753 6.11133 10.3018C6.08143 10.5306 6.06641 10.7692 6.06641 11.0176C6.06641 11.2381 6.08149 11.4573 6.11133 11.6748C6.14111 11.8918 6.18792 12.1035 6.25098 12.3086L6.27148 12.376L6.21484 12.418L4.31934 13.8252L5.13867 15.1855L7.32422 14.2852L7.38574 14.2598L7.43262 14.3066C7.78565 14.653 8.15159 14.93 8.5293 15.1377C8.8128 15.2936 9.12399 15.4236 9.46289 15.5283L9.81152 15.625L9.87793 15.6406L9.88672 15.709L10.1738 18.0107H11.7871L12.1133 15.6904L12.123 15.624L12.1875 15.6074C12.6414 15.4908 13.0482 15.331 13.4082 15.1289L13.6807 14.9629C13.9542 14.7829 14.2323 14.5594 14.5156 14.293L14.5635 14.249L14.623 14.2734L16.8262 15.1855L17.6436 13.8262L15.7148 12.4199L15.6582 12.3779L15.6787 12.3096C15.7536 12.061 15.803 11.8336 15.8271 11.6279C15.8511 11.4198 15.8623 11.2105 15.8623 11C15.8623 10.7784 15.851 10.5691 15.8271 10.3721C15.8037 10.1782 15.7541 9.96312 15.6787 9.72656L15.6572 9.6582L15.7148 9.61523L17.6787 8.17285L16.8604 6.81348L14.6045 7.73242L14.541 7.75879L14.4941 7.70801C14.2256 7.42137 13.8702 7.15057 13.4258 6.89648C12.9818 6.64263 12.5646 6.47568 12.1738 6.39355L12.1035 6.37891L12.0947 6.30762L11.8262 3.98926H10.1787L9.9043 6.29004ZM10.9756 8.67773C11.6386 8.6778 12.2042 8.9031 12.667 9.35254C13.13 9.80224 13.3633 10.3532 13.3633 11C13.3633 11.6468 13.13 12.1978 12.667 12.6475C12.2042 13.0969 11.6386 13.3222 10.9756 13.3223C10.3089 13.3223 9.74147 13.0973 9.28027 12.6475C8.8192 12.1977 8.58789 11.6467 8.58789 11C8.58789 10.3533 8.8192 9.80227 9.28027 9.35254C9.74147 8.90271 10.3089 8.67773 10.9756 8.67773Z" stroke="black" stroke-opacity="0.7" stroke-width="0.2"/>
</svg>
