<svg width="32" height="32" viewBox="0 0 32 32" fill="none" xmlns="http://www.w3.org/2000/svg">
<path d="M13.1698 5.45919L12.199 8.1019C10.9272 11.5674 10.2913 13.3001 9.0364 14.5646C7.7815 15.8291 6.06189 16.4698 2.62268 17.7514L0 18.7296L2.62268 19.7078C6.06189 20.9894 7.7815 21.632 9.0364 22.8946C10.2913 24.1572 10.9272 25.8918 12.199 29.3573L13.1698 32L14.1407 29.3573C15.4125 25.8918 16.0503 24.1591 17.3033 22.8946C18.5563 21.6301 20.2778 20.9894 23.717 19.7078L26.3397 18.7296L23.717 17.7514C20.2778 16.4698 18.5582 15.8291 17.3033 14.5646C16.0484 13.3001 15.4125 11.5674 14.1407 8.1019L13.1698 5.45919ZM26.3558 0L25.94 1.13178C25.3944 2.61806 25.1216 3.3612 24.5854 3.9015C24.0473 4.44369 23.3098 4.71858 21.8348 5.26646L20.7116 5.68732L21.8366 6.10628C23.3098 6.65606 24.0473 6.93094 24.5835 7.47124C25.1216 8.01343 25.3944 8.75657 25.9381 10.2429L26.3558 11.3746L26.7716 10.2429C27.3172 8.75657 27.59 8.01343 28.1262 7.47313C28.6643 6.93094 29.4018 6.65606 30.8768 6.10818L32 5.68732L30.8749 5.26835C29.4018 4.71858 28.6643 4.44369 28.1281 3.9034C27.59 3.3612 27.3172 2.61806 26.7735 1.13178L26.3558 0Z" fill="url(#paint0_linear_25_60)"/>
<defs>
<linearGradient id="paint0_linear_25_60" x1="8.16088e-08" y1="40.5333" x2="33.7238" y2="40.1309" gradientUnits="userSpaceOnUse">
<stop stop-color="#0427C5"/>
<stop offset="0.916586" stop-color="#BF05CF" stop-opacity="0.9"/>
</linearGradient>
</defs>
</svg>
